<?xml version="1.0" standalone="no"?>
<!DOCTYPE svg PUBLIC "-//W3C//DTD SVG 20010904//EN"
 "http://www.w3.org/TR/2001/REC-SVG-20010904/DTD/svg10.dtd">
<svg version="1.0" xmlns="http://www.w3.org/2000/svg"
 width="2500.000000pt" height="2500.000000pt" viewBox="0 0 2500.000000 2500.000000"
 preserveAspectRatio="xMidYMid meet">
<metadata>
Created by potrace 1.11, written by Peter Selinger 2001-2013
</metadata>
<g transform="translate(0.000000,2500.000000) scale(0.100000,-0.100000)"
fill="#000000" stroke="none">
<path d="M12484 18333 c-21 -38 -45 -81 -54 -98 -47 -84 -147 -262 -157 -280
-7 -11 -15 -27 -19 -35 -4 -8 -48 -87 -97 -175 -49 -88 -152 -272 -228 -410
-77 -137 -144 -257 -149 -265 -5 -8 -23 -40 -39 -71 -17 -31 -44 -81 -62 -110
-17 -30 -46 -81 -64 -114 -18 -33 -62 -112 -97 -175 -78 -139 -110 -198 -176
-315 -131 -237 -288 -516 -318 -568 -19 -32 -34 -60 -34 -61 0 -2 -48 -88
-106 -192 -121 -216 -167 -299 -205 -369 -14 -27 -30 -50 -35 -52 -5 -1 -49
66 -98 150 -49 84 -131 223 -182 310 -52 87 -94 162 -94 167 0 6 -3 10 -7 10
-5 0 -13 10 -19 23 -6 12 -57 101 -114 197 -56 96 -111 189 -120 206 -10 17
-37 62 -59 99 -23 37 -41 68 -41 70 0 2 -18 33 -41 70 -22 37 -50 84 -62 104
-19 33 -151 257 -177 301 -5 8 -45 76 -88 150 -44 74 -119 203 -167 285 -126
213 -237 338 -447 498 -81 61 -236 160 -274 173 -10 4 -30 15 -44 25 -14 9
-27 17 -30 17 -3 0 -23 7 -45 17 -118 50 -291 109 -359 121 -16 3 -32 6 -35 8
-3 2 -24 7 -46 10 -22 4 -53 9 -70 12 -16 3 -43 8 -60 10 -16 3 -1816 8 -3999
10 l-3968 5 6 -123 c3 -68 10 -150 15 -182 68 -397 276 -754 642 -1101 101
-96 164 -150 229 -199 30 -23 64 -49 75 -59 26 -24 279 -191 375 -249 57 -34
298 -162 306 -163 1 0 4 -40 8 -88 39 -579 360 -1094 937 -1507 183 -131 434
-271 656 -366 89 -38 91 -40 97 -77 22 -133 143 -415 251 -583 110 -170 296
-373 429 -469 16 -11 49 -36 75 -56 204 -159 534 -312 851 -395 l95 -25 680
-5 c1443 -9 1609 -12 1660 -23 203 -48 401 -280 639 -751 54 -107 162 -319
239 -470 395 -779 501 -987 622 -1225 73 -143 221 -435 330 -650 109 -214 257
-507 330 -650 73 -143 231 -453 351 -690 120 -236 274 -541 343 -677 70 -136
178 -349 241 -473 63 -125 118 -229 121 -231 4 -2 39 60 79 139 40 78 99 192
130 252 32 61 101 196 155 300 54 105 128 249 165 320 68 131 229 443 348 675
35 69 91 177 124 240 32 63 116 225 185 360 69 135 156 304 193 375 37 72 107
207 155 300 48 94 120 233 160 310 40 77 112 217 160 310 48 94 89 171 90 173
2 2 51 -93 110 -210 59 -117 167 -330 240 -473 73 -143 228 -449 345 -680 273
-540 644 -1271 1049 -2067 91 -181 168 -328 171 -328 3 0 23 37 46 83 36 72
256 507 642 1267 66 129 224 440 350 690 127 250 278 547 335 660 58 113 182
358 277 545 95 187 239 471 320 630 190 374 500 984 679 1338 181 359 216 410
341 503 137 101 238 127 555 139 77 3 183 7 235 10 52 2 160 7 240 10 80 3
179 8 220 10 41 2 147 6 235 10 88 3 201 8 250 10 50 2 155 7 235 10 80 3 188
8 240 10 52 2 154 7 225 10 172 7 222 12 336 36 285 58 557 214 799 459 128
129 142 145 241 277 165 219 313 483 435 778 l62 149 66 17 c256 65 564 315
829 674 37 50 71 95 76 101 25 30 172 263 239 379 41 72 118 215 170 318 88
176 97 189 136 209 50 25 195 119 216 139 8 8 24 21 36 29 74 52 375 341 454
435 50 60 135 160 140 165 11 9 176 225 231 300 126 172 459 685 459 707 0 2
17 35 39 71 21 37 54 96 73 132 20 36 45 82 57 103 11 21 21 39 21 42 0 6
-7787 -13 -7850 -19 -87 -9 -167 -18 -185 -22 -11 -3 -36 -7 -55 -10 -19 -3
-38 -8 -41 -10 -3 -2 -21 -6 -40 -9 -19 -3 -70 -17 -114 -30 -440 -130 -776
-371 -999 -717 -31 -48 -56 -90 -56 -92 0 -3 -120 -220 -267 -483 -146 -263
-279 -500 -293 -528 -15 -27 -42 -74 -59 -103 -17 -29 -31 -55 -31 -57 0 -2
-14 -28 -31 -57 -29 -49 -70 -123 -123 -223 -11 -22 -23 -42 -26 -45 -5 -4
-73 -127 -205 -365 -144 -259 -178 -321 -185 -328 -3 -4 -23 23 -42 60 -19 37
-68 127 -108 198 -40 72 -91 164 -113 205 -22 41 -43 80 -47 85 -4 6 -22 37
-40 70 -18 33 -46 85 -63 115 -16 30 -40 74 -53 98 -13 23 -35 61 -48 85 -13
23 -37 67 -53 97 -43 78 -235 426 -267 483 -14 26 -38 68 -52 95 -15 26 -45
81 -67 122 -22 41 -48 87 -58 102 -11 14 -19 29 -19 33 0 3 -44 86 -99 183
-54 97 -112 202 -128 232 -17 30 -54 98 -83 150 -29 52 -65 118 -80 145 -27
49 -47 86 -105 190 -15 28 -51 93 -80 145 -29 52 -103 187 -166 300 -62 113
-118 215 -123 227 -6 13 -14 23 -18 23 -3 0 -23 -30 -44 -67z"/>
</g>
</svg>
